<?xml version="1.0" encoding="UTF-8" standalone="no"?>
<!DOCTYPE svg PUBLIC "-//W3C//DTD SVG 1.1//EN"
 "http://www.w3.org/Graphics/SVG/1.1/DTD/svg11.dtd">
<!-- Generated by graphviz version 14.1.1 (20251213.1925)
 -->
<!-- Title: InheritanceTree Pages: 1 -->
<svg width="450pt" height="933pt"
 viewBox="0.00 0.00 450.00 933.00" xmlns="http://www.w3.org/2000/svg" xmlns:xlink="http://www.w3.org/1999/xlink">
<g id="graph0" class="graph" transform="scale(1 1) rotate(0) translate(4 928.5)">
<title>InheritanceTree</title>
<polygon fill="white" stroke="none" points="-4,4 -4,-928.5 445.5,-928.5 445.5,4 -4,4"/>
<text xml:space="preserve" text-anchor="middle" x="220.75" y="-7.2" font-family="Times New Roman,serif" font-size="14.00">simple_telemetry &#45; Inheritance Hierarchy</text>
<!-- SIMPLE_LOG_ENTRY -->
<g id="node1" class="node">
<title>SIMPLE_LOG_ENTRY</title>
<path fill="none" stroke="black" d="M169.75,-60.5C169.75,-60.5 43.5,-60.5 43.5,-60.5 37.5,-60.5 31.5,-54.5 31.5,-48.5 31.5,-48.5 31.5,-36.5 31.5,-36.5 31.5,-30.5 37.5,-24.5 43.5,-24.5 43.5,-24.5 169.75,-24.5 169.75,-24.5 175.75,-24.5 181.75,-30.5 181.75,-36.5 181.75,-36.5 181.75,-48.5 181.75,-48.5 181.75,-54.5 175.75,-60.5 169.75,-60.5"/>
<text xml:space="preserve" text-anchor="middle" x="106.62" y="-37.45" font-family="Times New Roman,serif" font-size="14.00">SIMPLE_LOG_ENTRY</text>
</g>
<!-- SIMPLE_TELEMETRY_LOGGER -->
<g id="node2" class="node">
<title>SIMPLE_TELEMETRY_LOGGER</title>
<path fill="none" stroke="black" d="M201.25,-132.5C201.25,-132.5 12,-132.5 12,-132.5 6,-132.5 0,-126.5 0,-120.5 0,-120.5 0,-108.5 0,-108.5 0,-102.5 6,-96.5 12,-96.5 12,-96.5 201.25,-96.5 201.25,-96.5 207.25,-96.5 213.25,-102.5 213.25,-108.5 213.25,-108.5 213.25,-120.5 213.25,-120.5 213.25,-126.5 207.25,-132.5 201.25,-132.5"/>
<text xml:space="preserve" text-anchor="middle" x="106.62" y="-109.45" font-family="Times New Roman,serif" font-size="14.00">SIMPLE_TELEMETRY_LOGGER</text>
</g>
<!-- SIMPLE_COUNTER -->
<g id="node3" class="node">
<title>SIMPLE_COUNTER</title>
<path fill="none" stroke="black" d="M162.25,-204.5C162.25,-204.5 51,-204.5 51,-204.5 45,-204.5 39,-198.5 39,-192.5 39,-192.5 39,-180.5 39,-180.5 39,-174.5 45,-168.5 51,-168.5 51,-168.5 162.25,-168.5 162.25,-168.5 168.25,-168.5 174.25,-174.5 174.25,-180.5 174.25,-180.5 174.25,-192.5 174.25,-192.5 174.25,-198.5 168.25,-204.5 162.25,-204.5"/>
<text xml:space="preserve" text-anchor="middle" x="106.62" y="-181.45" font-family="Times New Roman,serif" font-size="14.00">SIMPLE_COUNTER</text>
</g>
<!-- SIMPLE_GAUGE -->
<g id="node4" class="node">
<title>SIMPLE_GAUGE</title>
<path fill="none" stroke="black" d="M154,-276.5C154,-276.5 59.25,-276.5 59.25,-276.5 53.25,-276.5 47.25,-270.5 47.25,-264.5 47.25,-264.5 47.25,-252.5 47.25,-252.5 47.25,-246.5 53.25,-240.5 59.25,-240.5 59.25,-240.5 154,-240.5 154,-240.5 160,-240.5 166,-246.5 166,-252.5 166,-252.5 166,-264.5 166,-264.5 166,-270.5 160,-276.5 154,-276.5"/>
<text xml:space="preserve" text-anchor="middle" x="106.62" y="-253.45" font-family="Times New Roman,serif" font-size="14.00">SIMPLE_GAUGE</text>
</g>
<!-- SIMPLE_HISTOGRAM -->
<g id="node5" class="node">
<title>SIMPLE_HISTOGRAM</title>
<path fill="none" stroke="black" d="M170.88,-348.5C170.88,-348.5 42.38,-348.5 42.38,-348.5 36.38,-348.5 30.38,-342.5 30.38,-336.5 30.38,-336.5 30.38,-324.5 30.38,-324.5 30.38,-318.5 36.38,-312.5 42.38,-312.5 42.38,-312.5 170.88,-312.5 170.88,-312.5 176.88,-312.5 182.88,-318.5 182.88,-324.5 182.88,-324.5 182.88,-336.5 182.88,-336.5 182.88,-342.5 176.88,-348.5 170.88,-348.5"/>
<text xml:space="preserve" text-anchor="middle" x="106.62" y="-325.45" font-family="Times New Roman,serif" font-size="14.00">SIMPLE_HISTOGRAM</text>
</g>
<!-- SIMPLE_METER -->
<g id="node6" class="node">
<title>SIMPLE_METER</title>
<path fill="none" stroke="black" d="M153.62,-420.5C153.62,-420.5 59.62,-420.5 59.62,-420.5 53.62,-420.5 47.62,-414.5 47.62,-408.5 47.62,-408.5 47.62,-396.5 47.62,-396.5 47.62,-390.5 53.62,-384.5 59.62,-384.5 59.62,-384.5 153.62,-384.5 153.62,-384.5 159.62,-384.5 165.62,-390.5 165.62,-396.5 165.62,-396.5 165.62,-408.5 165.62,-408.5 165.62,-414.5 159.62,-420.5 153.62,-420.5"/>
<text xml:space="preserve" text-anchor="middle" x="106.62" y="-397.45" font-family="Times New Roman,serif" font-size="14.00">SIMPLE_METER</text>
</g>
<!-- SIMPLE_TELEMETRY -->
<g id="node7" class="node">
<title>SIMPLE_TELEMETRY</title>
<path fill="none" stroke="black" d="M170.5,-492.5C170.5,-492.5 42.75,-492.5 42.75,-492.5 36.75,-492.5 30.75,-486.5 30.75,-480.5 30.75,-480.5 30.75,-468.5 30.75,-468.5 30.75,-462.5 36.75,-456.5 42.75,-456.5 42.75,-456.5 170.5,-456.5 170.5,-456.5 176.5,-456.5 182.5,-462.5 182.5,-468.5 182.5,-468.5 182.5,-480.5 182.5,-480.5 182.5,-486.5 176.5,-492.5 170.5,-492.5"/>
<text xml:space="preserve" text-anchor="middle" x="106.62" y="-469.45" font-family="Times New Roman,serif" font-size="14.00">SIMPLE_TELEMETRY</text>
</g>
<!-- SIMPLE_SPAN -->
<g id="node8" class="node">
<title>SIMPLE_SPAN</title>
<path fill="none" stroke="black" d="M147.25,-564.5C147.25,-564.5 66,-564.5 66,-564.5 60,-564.5 54,-558.5 54,-552.5 54,-552.5 54,-540.5 54,-540.5 54,-534.5 60,-528.5 66,-528.5 66,-528.5 147.25,-528.5 147.25,-528.5 153.25,-528.5 159.25,-534.5 159.25,-540.5 159.25,-540.5 159.25,-552.5 159.25,-552.5 159.25,-558.5 153.25,-564.5 147.25,-564.5"/>
<text xml:space="preserve" text-anchor="middle" x="106.62" y="-541.45" font-family="Times New Roman,serif" font-size="14.00">SIMPLE_SPAN</text>
</g>
<!-- SIMPLE_SPAN_EVENT -->
<g id="node9" class="node">
<title>SIMPLE_SPAN_EVENT</title>
<path fill="none" stroke="black" d="M172.75,-636.5C172.75,-636.5 40.5,-636.5 40.5,-636.5 34.5,-636.5 28.5,-630.5 28.5,-624.5 28.5,-624.5 28.5,-612.5 28.5,-612.5 28.5,-606.5 34.5,-600.5 40.5,-600.5 40.5,-600.5 172.75,-600.5 172.75,-600.5 178.75,-600.5 184.75,-606.5 184.75,-612.5 184.75,-612.5 184.75,-624.5 184.75,-624.5 184.75,-630.5 178.75,-636.5 172.75,-636.5"/>
<text xml:space="preserve" text-anchor="middle" x="106.62" y="-613.45" font-family="Times New Roman,serif" font-size="14.00">SIMPLE_SPAN_EVENT</text>
</g>
<!-- SIMPLE_TRACER -->
<g id="node10" class="node">
<title>SIMPLE_TRACER</title>
<path fill="none" stroke="black" d="M157,-708.5C157,-708.5 56.25,-708.5 56.25,-708.5 50.25,-708.5 44.25,-702.5 44.25,-696.5 44.25,-696.5 44.25,-684.5 44.25,-684.5 44.25,-678.5 50.25,-672.5 56.25,-672.5 56.25,-672.5 157,-672.5 157,-672.5 163,-672.5 169,-678.5 169,-684.5 169,-684.5 169,-696.5 169,-696.5 169,-702.5 163,-708.5 157,-708.5"/>
<text xml:space="preserve" text-anchor="middle" x="106.62" y="-685.45" font-family="Times New Roman,serif" font-size="14.00">SIMPLE_TRACER</text>
</g>
<!-- SIMPLE_TRACE_CONTEXT -->
<g id="node11" class="node">
<title>SIMPLE_TRACE_CONTEXT</title>
<path fill="none" stroke="black" d="M187.38,-780.5C187.38,-780.5 25.88,-780.5 25.88,-780.5 19.88,-780.5 13.88,-774.5 13.88,-768.5 13.88,-768.5 13.88,-756.5 13.88,-756.5 13.88,-750.5 19.88,-744.5 25.88,-744.5 25.88,-744.5 187.38,-744.5 187.38,-744.5 193.38,-744.5 199.38,-750.5 199.38,-756.5 199.38,-756.5 199.38,-768.5 199.38,-768.5 199.38,-774.5 193.38,-780.5 187.38,-780.5"/>
<text xml:space="preserve" text-anchor="middle" x="106.62" y="-757.45" font-family="Times New Roman,serif" font-size="14.00">SIMPLE_TRACE_CONTEXT</text>
</g>
<!-- LIB_TESTS -->
<g id="node12" class="node">
<title>LIB_TESTS</title>
<path fill="none" stroke="black" d="M136.75,-852.5C136.75,-852.5 76.5,-852.5 76.5,-852.5 70.5,-852.5 64.5,-846.5 64.5,-840.5 64.5,-840.5 64.5,-828.5 64.5,-828.5 64.5,-822.5 70.5,-816.5 76.5,-816.5 76.5,-816.5 136.75,-816.5 136.75,-816.5 142.75,-816.5 148.75,-822.5 148.75,-828.5 148.75,-828.5 148.75,-840.5 148.75,-840.5 148.75,-846.5 142.75,-852.5 136.75,-852.5"/>
<text xml:space="preserve" text-anchor="middle" x="106.62" y="-829.45" font-family="Times New Roman,serif" font-size="14.00">LIB_TESTS</text>
</g>
<!-- TEST_SET_BASE -->
<g id="node13" class="node">
<title>TEST_SET_BASE</title>
<path fill="none" stroke="black" d="M429.5,-852.5C429.5,-852.5 333.25,-852.5 333.25,-852.5 327.25,-852.5 321.25,-846.5 321.25,-840.5 321.25,-840.5 321.25,-828.5 321.25,-828.5 321.25,-822.5 327.25,-816.5 333.25,-816.5 333.25,-816.5 429.5,-816.5 429.5,-816.5 435.5,-816.5 441.5,-822.5 441.5,-828.5 441.5,-828.5 441.5,-840.5 441.5,-840.5 441.5,-846.5 435.5,-852.5 429.5,-852.5"/>
<text xml:space="preserve" text-anchor="middle" x="381.38" y="-829.45" font-family="Times New Roman,serif" font-size="14.00">TEST_SET_BASE</text>
</g>
<!-- LIB_TESTS&#45;&gt;TEST_SET_BASE -->
<g id="edge1" class="edge">
<title>LIB_TESTS&#45;&gt;TEST_SET_BASE</title>
<path fill="none" stroke="black" d="M148.95,-834.5C148.95,-834.5 309.38,-834.5 309.38,-834.5"/>
<polygon fill="none" stroke="black" points="309.38,-838 319.38,-834.5 309.38,-831 309.38,-838"/>
</g>
<!-- TEST_APP -->
<g id="node14" class="node">
<title>TEST_APP</title>
<path fill="none" stroke="black" d="M134.5,-924.5C134.5,-924.5 78.75,-924.5 78.75,-924.5 72.75,-924.5 66.75,-918.5 66.75,-912.5 66.75,-912.5 66.75,-900.5 66.75,-900.5 66.75,-894.5 72.75,-888.5 78.75,-888.5 78.75,-888.5 134.5,-888.5 134.5,-888.5 140.5,-888.5 146.5,-894.5 146.5,-900.5 146.5,-900.5 146.5,-912.5 146.5,-912.5 146.5,-918.5 140.5,-924.5 134.5,-924.5"/>
<text xml:space="preserve" text-anchor="middle" x="106.62" y="-901.45" font-family="Times New Roman,serif" font-size="14.00">TEST_APP</text>
</g>
</g>
</svg>
