<?xml version="1.0" encoding="UTF-8" standalone="no"?>
<!DOCTYPE svg PUBLIC "-//W3C//DTD SVG 1.1//EN"
 "http://www.w3.org/Graphics/SVG/1.1/DTD/svg11.dtd">
<!-- Generated by graphviz version 14.1.1 (20251213.1925)
 -->
<!-- Title: Dependencies Pages: 1 -->
<svg width="370pt" height="213pt"
 viewBox="0.00 0.00 370.00 213.00" xmlns="http://www.w3.org/2000/svg" xmlns:xlink="http://www.w3.org/1999/xlink">
<g id="graph0" class="graph" transform="scale(1 1) rotate(0) translate(4 208.5)">
<title>Dependencies</title>
<polygon fill="white" stroke="none" points="-4,4 -4,-208.5 366,-208.5 366,4 -4,4"/>
<text xml:space="preserve" text-anchor="middle" x="181" y="-7.2" font-family="Times New Roman,serif" font-size="14.00">simple_telemetry &#45; Dependencies</text>
<!-- simple_telemetry -->
<g id="node1" class="node">
<title>simple_telemetry</title>
<polygon fill="lightblue" stroke="black" points="111.25,-132.5 0,-132.5 0,-96.5 111.25,-96.5 111.25,-132.5"/>
<text xml:space="preserve" text-anchor="middle" x="55.62" y="-109.45" font-family="Times New Roman,serif" font-size="14.00">simple_telemetry</text>
</g>
<!-- simple_datetime -->
<g id="node2" class="node">
<title>simple_datetime</title>
<polygon fill="lightblue" stroke="black" points="362,-204.5 255.25,-204.5 255.25,-168.5 362,-168.5 362,-204.5"/>
<text xml:space="preserve" text-anchor="middle" x="308.62" y="-181.45" font-family="Times New Roman,serif" font-size="14.00">simple_datetime</text>
</g>
<!-- simple_telemetry&#45;&gt;simple_datetime -->
<g id="edge1" class="edge">
<title>simple_telemetry&#45;&gt;simple_datetime</title>
<path fill="none" stroke="black" stroke-dasharray="5,2" d="M56,-132.67C56,-154 56,-186.5 56,-186.5 56,-186.5 243.54,-186.5 243.54,-186.5"/>
<polygon fill="black" stroke="black" points="243.54,-190 253.54,-186.5 243.54,-183 243.54,-190"/>
</g>
<!-- simple_testing -->
<g id="node3" class="node">
<title>simple_testing</title>
<polygon fill="lightblue" stroke="black" points="356.38,-132.5 260.88,-132.5 260.88,-96.5 356.38,-96.5 356.38,-132.5"/>
<text xml:space="preserve" text-anchor="middle" x="308.62" y="-109.45" font-family="Times New Roman,serif" font-size="14.00">simple_testing</text>
</g>
<!-- simple_telemetry&#45;&gt;simple_testing -->
<g id="edge2" class="edge">
<title>simple_telemetry&#45;&gt;simple_testing</title>
<path fill="none" stroke="black" stroke-dasharray="5,2" d="M111.46,-114.5C111.46,-114.5 249.08,-114.5 249.08,-114.5"/>
<polygon fill="black" stroke="black" points="249.08,-118 259.08,-114.5 249.08,-111 249.08,-118"/>
</g>
<!-- base -->
<g id="node4" class="node">
<title>base</title>
<polygon fill="lightgray" stroke="black" points="335.62,-60.5 281.62,-60.5 281.62,-24.5 335.62,-24.5 335.62,-60.5"/>
<text xml:space="preserve" text-anchor="middle" x="308.62" y="-37.45" font-family="Times New Roman,serif" font-size="14.00">base</text>
</g>
<!-- simple_telemetry&#45;&gt;base -->
<g id="edge3" class="edge">
<title>simple_telemetry&#45;&gt;base</title>
<path fill="none" stroke="black" stroke-dasharray="5,2" d="M56,-96.33C56,-75 56,-42.5 56,-42.5 56,-42.5 270.08,-42.5 270.08,-42.5"/>
<polygon fill="black" stroke="black" points="270.08,-46 280.08,-42.5 270.08,-39 270.08,-46"/>
</g>
</g>
</svg>
